<?xml version="1.0"?><svg xmlns="http://www.w3.org/2000/svg" width="49" height="49" viewBox="0 0 49 49" fill="none"><mask id="mask0_43_383" style="mask-type:alpha" maskUnits="userSpaceOnUse" x="0" y="0" width="49" height="49"><rect x="0.222778" y="0.734253" width="48" height="48" fill="#D9D9D9"/></mask><g mask="url(#mask0_43_383)"><circle cx="24.2228" cy="24.7343" r="15.84" stroke="black" stroke-width="2"/><circle cx="24.2228" cy="18.7815" r="4.12723" stroke="black" stroke-width="2"/><path d="M20.6151 24.0663L20.7313 23.5799V23.5799L20.6151 24.0663ZM18.7962 24.326L19.0158 24.7752L19.0158 24.7752L18.7962 24.326ZM21.5194 24.4493L21.7636 24.013L21.7607 24.0114L21.5194 24.4493ZM21.5195 24.4493L21.2753 24.8856L21.2782 24.8872L21.5195 24.4493ZM21.6506 24.5198L21.8742 24.0726L21.8742 24.0726L21.6506 24.5198ZM24.2228 25.1305L24.2172 25.6306L24.2284 25.6304L24.2228 25.1305ZM26.7949 24.5198L27.0185 24.967L27.0185 24.967L26.7949 24.5198ZM26.9261 24.4493L27.1674 24.8872C27.1721 24.8846 27.1768 24.882 27.1814 24.8792L26.9261 24.4493ZM26.9261 24.4493L26.6848 24.0114C26.6801 24.0139 26.6755 24.0166 26.6708 24.0194L26.9261 24.4493ZM27.8305 24.0663L27.7143 23.5799V23.5799L27.8305 24.0663ZM29.6493 24.326L29.4297 24.7752L29.4297 24.7752L29.6493 24.326ZM29.7426 24.3852L30.0555 23.9952L30.0555 23.9952L29.7426 24.3852ZM33.0233 31.3277L32.5259 31.3786V31.3786L33.0233 31.3277ZM32.4054 33.7239L32.7864 34.0477L32.7864 34.0477L32.4054 33.7239ZM30.9749 34.532L30.9093 34.0364L30.9093 34.0364L30.9749 34.532ZM24.2228 34.5234L24.3359 34.0364C24.2615 34.0191 24.1841 34.0191 24.1096 34.0364L24.2228 34.5234ZM17.4706 34.532L17.5363 34.0364L17.5362 34.0364L17.4706 34.532ZM16.0401 33.7239L16.4211 33.4H16.4211L16.0401 33.7239ZM15.4222 31.3277L15.9196 31.3786V31.3786L15.4222 31.3277ZM18.7029 24.3852L19.0158 24.7752L19.0158 24.7752L18.7029 24.3852ZM24.2228 33.5493L24.1096 34.0364C24.1841 34.0536 24.2615 34.0536 24.3359 34.0364L24.2228 33.5493ZM30.8722 33.5364V34.0364C30.9003 34.0364 30.9283 34.034 30.956 34.0293L30.8722 33.5364ZM31.6436 33.0761L31.2626 32.7523L31.6436 33.0761ZM32.0285 31.4294L31.5311 31.4803L32.0285 31.4294ZM29.1611 25.201L29.4766 24.8131C29.4447 24.7871 29.4098 24.7653 29.3726 24.7479L29.1611 25.201ZM28.0629 25.0389L28.1791 25.5252V25.5252L28.0629 25.0389ZM27.4851 25.2856L27.7248 25.7243V25.7243L27.4851 25.2856ZM27.2421 25.4142L27.0185 24.967L27.0185 24.967L27.2421 25.4142ZM24.2768 26.1298L24.2682 25.6299C24.2611 25.63 24.254 25.6303 24.2469 25.6307L24.2768 26.1298ZM24.243 26.1307L24.2396 26.6307H24.2396L24.243 26.1307ZM24.2228 26.1305L24.2276 25.6305L24.2179 25.6305L24.2228 26.1305ZM24.2026 26.1307L24.206 26.6307H24.206L24.2026 26.1307ZM24.1688 26.1298L24.1986 25.6307C24.1916 25.6303 24.1845 25.63 24.1774 25.6299L24.1688 26.1298ZM21.2034 25.4142L21.427 24.967L21.427 24.967L21.2034 25.4142ZM20.9605 25.2856L21.2003 24.8468L21.2003 24.8468L20.9605 25.2856ZM20.3827 25.0389L20.2665 25.5252L20.2665 25.5252L20.3827 25.0389ZM19.2844 25.201L19.073 24.7479C19.0358 24.7653 19.0008 24.7871 18.969 24.8131L19.2844 25.201ZM16.4171 31.4294L16.9145 31.4803L16.4171 31.4294ZM16.802 33.0761L16.4211 33.4H16.4211L16.802 33.0761ZM17.5733 33.5364L17.4896 34.0293C17.5172 34.034 17.5453 34.0364 17.5733 34.0364V33.5364ZM20.7313 23.5799C20.1052 23.4304 19.389 23.4797 18.5766 23.8768L19.0158 24.7752C19.6324 24.4738 20.1119 24.4601 20.4989 24.5526L20.7313 23.5799ZM21.7607 24.0114C21.5576 23.8995 21.1748 23.6859 20.7313 23.5799L20.4989 24.5526C20.794 24.6231 21.0674 24.7711 21.2782 24.8872L21.7607 24.0114ZM21.7637 24.013L21.7636 24.013L21.2752 24.8856L21.2753 24.8856L21.7637 24.013ZM21.8742 24.0726C21.8499 24.0604 21.8158 24.0417 21.7607 24.0114L21.2782 24.8872C21.3266 24.9139 21.3807 24.9438 21.427 24.967L21.8742 24.0726ZM24.2284 24.6305C22.9639 24.6163 22.1059 24.1884 21.8742 24.0726L21.427 24.967C21.7108 25.1088 22.7296 25.6138 24.2172 25.6304L24.2284 24.6305ZM24.2284 25.6304C25.7159 25.6138 26.7348 25.1088 27.0185 24.967L26.5713 24.0726C26.3397 24.1884 25.4816 24.6163 24.2172 24.6305L24.2284 25.6304ZM27.0185 24.967C27.0648 24.9438 27.119 24.9139 27.1674 24.8872L26.6848 24.0114C26.6298 24.0417 26.5957 24.0604 26.5713 24.0726L27.0185 24.967ZM27.1814 24.8792L27.1814 24.8792L26.6708 24.0194L26.6708 24.0194L27.1814 24.8792ZM27.1674 24.8872C27.3781 24.7711 27.6516 24.6231 27.9467 24.5526L27.7143 23.5799C27.2708 23.6859 26.8879 23.8995 26.6848 24.0114L27.1674 24.8872ZM27.9467 24.5526C28.3337 24.4601 28.8132 24.4738 29.4297 24.7752L29.8689 23.8768C29.0566 23.4797 28.3403 23.4304 27.7143 23.5799L27.9467 24.5526ZM29.4297 24.7752V24.7752L30.0555 23.9952C29.9979 23.949 29.9353 23.9093 29.8689 23.8768L29.4297 24.7752ZM29.4297 24.7752C31.7861 26.6658 32.2793 28.9673 32.5259 31.3786L33.5207 31.2768C33.2661 28.7873 32.7325 26.143 30.0555 23.9952L29.4297 24.7752ZM32.5259 31.3786C32.6246 32.3433 32.3755 32.9871 32.0245 33.4L32.7864 34.0477C33.3387 33.3981 33.643 32.4722 33.5207 31.2768L32.5259 31.3786ZM32.0245 33.4C31.6734 33.8129 31.22 33.9952 30.9093 34.0364L31.0405 35.0277C31.5704 34.9576 32.2585 34.6686 32.7864 34.0477L32.0245 33.4ZM30.9093 34.0364L30.9093 34.0364V35.0364C30.9532 35.0364 30.997 35.0335 31.0405 35.0277L30.9093 34.0364ZM30.9093 34.0364H24.3364V35.0364H30.9093V34.0364ZM24.3364 34.0364L24.3359 34.0364L24.1096 35.0104C24.183 35.0275 24.2589 35.0364 24.3364 35.0364V34.0364ZM24.1092 35.0364C24.1866 35.0364 24.2626 35.0275 24.3359 35.0104L24.1096 34.0364L24.1092 34.0364V35.0364ZM17.5362 35.0364H24.1092V34.0364H17.5362V35.0364ZM17.405 35.0277C17.4485 35.0335 17.4924 35.0364 17.5362 35.0364V34.0364L17.5363 34.0364L17.405 35.0277ZM15.6592 34.0477C16.1871 34.6686 16.8751 34.9576 17.405 35.0277L17.5362 34.0364C17.2256 33.9952 16.7722 33.8129 16.4211 33.4L15.6592 34.0477ZM14.9248 31.2768C14.8026 32.4722 15.1069 33.3981 15.6592 34.0477L16.4211 33.4C16.07 32.9871 15.821 32.3433 15.9196 31.3786L14.9248 31.2768ZM18.39 23.9952C15.7131 26.143 15.1795 28.7873 14.9248 31.2768L15.9196 31.3786C16.1663 28.9673 16.6595 26.6658 19.0158 24.7752L18.39 23.9952ZM18.5766 23.8768C18.5102 23.9093 18.4477 23.949 18.39 23.9952L19.0158 24.7752L19.0158 24.7752L18.5766 23.8768ZM24.3359 34.0364L24.3364 34.0364V33.0364C24.2589 33.0364 24.183 33.0453 24.1096 33.0623L24.3359 34.0364ZM24.3364 34.0364H30.8722V33.0364H24.3364V34.0364ZM30.956 34.0293C31.2605 33.9776 31.6887 33.795 32.0245 33.4L31.2626 32.7523C31.0969 32.9472 30.89 33.0262 30.7885 33.0434L30.956 34.0293ZM32.0245 33.4C32.3755 32.9872 32.6246 32.3434 32.5259 31.3786L31.5311 31.4803C31.6061 32.2134 31.4129 32.5755 31.2626 32.7523L32.0245 33.4ZM32.5259 31.3786C32.281 28.9842 31.793 26.6968 29.4766 24.8131L28.8457 25.5889C30.8457 27.2153 31.2941 29.1628 31.5311 31.4803L32.5259 31.3786ZM29.3726 24.7479C28.7821 24.4724 28.3201 24.4633 27.9467 24.5526L28.1791 25.5252C28.3237 25.4906 28.5552 25.47 28.9497 25.6541L29.3726 24.7479ZM27.9467 24.5526C27.6493 24.6236 27.4335 24.744 27.2453 24.8468L27.7248 25.7243C27.9187 25.6184 28.0274 25.5614 28.1791 25.5252L27.9467 24.5526ZM27.2453 24.8468C27.1699 24.888 27.0983 24.9271 27.0185 24.967L27.4657 25.8614C27.564 25.8123 27.6507 25.7649 27.7248 25.7243L27.2453 24.8468ZM27.0185 24.967C26.7372 25.1076 25.7341 25.6048 24.2682 25.6299L24.2853 26.6297C25.9711 26.6008 27.1326 26.028 27.4657 25.8614L27.0185 24.967ZM24.2396 26.6307C24.262 26.6308 24.2844 26.6302 24.3066 26.6289L24.2469 25.6307L24.2464 25.6307L24.2396 26.6307ZM24.2179 26.6305C24.2251 26.6306 24.2324 26.6306 24.2396 26.6307L24.2464 25.6307C24.2401 25.6307 24.2339 25.6306 24.2276 25.6305L24.2179 26.6305ZM24.2179 25.6305C24.2117 25.6306 24.2054 25.6307 24.1991 25.6307L24.206 26.6307C24.2132 26.6306 24.2204 26.6306 24.2276 26.6305L24.2179 25.6305ZM24.1991 25.6307L24.1986 25.6307L24.139 26.6289C24.1612 26.6302 24.1835 26.6308 24.206 26.6307L24.1991 25.6307ZM20.9798 25.8614C21.3129 26.028 22.4745 26.6008 24.1602 26.6297L24.1774 25.6299C22.7115 25.6048 21.7083 25.1076 21.427 24.967L20.9798 25.8614ZM20.7207 25.7243C20.7949 25.7649 20.8815 25.8123 20.9798 25.8614L21.427 24.967C21.3473 24.9271 21.2756 24.888 21.2003 24.8468L20.7207 25.7243ZM20.2665 25.5252C20.4182 25.5614 20.5268 25.6184 20.7207 25.7243L21.2003 24.8468C21.0121 24.744 20.7963 24.6236 20.4989 24.5526L20.2665 25.5252ZM19.4959 25.6541C19.8903 25.47 20.1218 25.4906 20.2665 25.5252L20.4989 24.5526C20.1254 24.4633 19.6634 24.4724 19.073 24.7479L19.4959 25.6541ZM16.9145 31.4803C17.1515 29.1628 17.5999 27.2153 19.5999 25.5889L18.969 24.8131C16.6525 26.6968 16.1645 28.9842 15.9196 31.3786L16.9145 31.4803ZM17.1829 32.7523C17.0326 32.5755 16.8395 32.2134 16.9145 31.4803L15.9196 31.3786C15.821 32.3434 16.0701 32.9871 16.4211 33.4L17.1829 32.7523ZM17.657 33.0434C17.5556 33.0262 17.3487 32.9472 17.1829 32.7523L16.4211 33.4C16.7569 33.795 17.185 33.9776 17.4896 34.0293L17.657 33.0434ZM24.1092 33.0364H17.5733V34.0364H24.1092V33.0364ZM24.3359 33.0623C24.2626 33.0453 24.1866 33.0364 24.1092 33.0364V34.0364L24.1096 34.0364L24.3359 33.0623Z" fill="black"/></g></svg>